<?xml version="1.0" standalone="no"?>
<!DOCTYPE svg PUBLIC "-//W3C//DTD SVG 20010904//EN"
 "http://www.w3.org/TR/2001/REC-SVG-20010904/DTD/svg10.dtd">
<svg version="1.0" xmlns="http://www.w3.org/2000/svg"
 width="300.000000pt" height="300.000000pt" viewBox="0 0 300.000000 300.000000"
 preserveAspectRatio="xMidYMid meet">
<metadata>
Created by potrace 1.14, written by Peter Selinger 2001-2017
</metadata>
<g transform="translate(0.000000,300.000000) scale(0.100000,-0.100000)"
fill="#000000" stroke="none">
<path d="M128 2912 c-40 -8 -70 -113 -63 -222 6 -83 16 -174 21 -182 3 -4 7
-31 10 -60 2 -29 9 -67 15 -85 5 -17 12 -43 15 -58 6 -33 41 -109 70 -152 19
-28 150 -190 164 -203 3 -3 22 -29 43 -57 62 -89 94 -172 103 -268 2 -33 6
-69 9 -80 3 -16 -12 -30 -66 -63 -38 -24 -80 -58 -94 -76 -22 -28 -95 -167
-101 -191 -2 -5 -12 -41 -24 -80 -19 -60 -21 -94 -21 -242 1 -96 6 -184 12
-200 6 -15 13 -44 16 -63 7 -49 10 -341 3 -345 -5 -3 -6 -119 -1 -147 1 -11
229 -10 271 1 19 5 47 12 63 15 24 6 27 11 27 45 0 42 -9 53 -55 68 -16 5 -31
17 -33 25 -6 29 109 242 136 253 20 8 201 -22 218 -36 21 -17 43 -62 42 -85
-1 -10 3 -50 7 -89 8 -67 12 -107 14 -175 1 -29 3 -30 49 -30 26 0 54 6 61 13
11 10 13 9 7 -1 -9 -16 6 -16 23 1 8 6 11 7 8 1 -8 -14 21 -11 50 4 14 8 24 9
28 2 8 -13 25 -3 25 13 0 8 -3 8 -9 -1 -6 -11 -10 -10 -15 4 -4 10 -4 15 0 11
4 -4 13 -2 21 5 8 6 13 7 12 2 -3 -19 1 -34 12 -34 5 0 7 4 4 10 -4 6 1 7 11
3 10 -4 15 -2 11 4 -3 5 0 10 8 10 8 0 12 -4 9 -9 -3 -4 -1 -8 4 -8 6 0 12 7
16 15 3 9 0 15 -9 15 -8 0 -15 5 -15 10 0 6 -11 15 -25 20 -37 14 -40 34 -22
122 18 84 55 175 92 224 42 55 174 98 275 90 25 -2 52 -4 61 -5 32 -2 84 -69
136 -173 89 -180 113 -242 113 -301 l0 -28 172 5 c94 3 175 9 180 14 5 5 8 25
6 43 -2 25 -9 37 -28 44 -140 57 -174 105 -174 245 0 77 3 93 38 170 21 47 45
110 53 140 8 30 21 62 27 70 7 8 20 31 28 50 9 19 36 80 61 135 48 105 53 120
62 198 3 26 15 71 25 98 11 28 18 55 15 60 -4 5 9 10 27 10 92 4 110 6 233 25
53 8 90 28 134 72 71 71 141 199 141 257 0 29 -26 85 -39 85 -5 0 -22 12 -39
28 -29 27 -29 29 -25 106 4 73 6 80 39 111 19 19 48 63 63 97 28 61 71 217 71
256 0 38 -21 78 -49 95 -33 19 -141 23 -206 6 -22 -5 -49 -12 -60 -14 -11 -3
-45 -14 -75 -25 l-54 -20 -91 45 c-49 24 -119 51 -155 61 -76 19 -241 27 -288
14 -29 -8 -37 -5 -62 18 -92 87 -198 151 -259 159 -90 10 -135 -41 -165 -192
-23 -109 -21 -265 3 -265 3 0 15 -15 25 -34 17 -32 17 -35 0 -72 -28 -61 -52
-82 -109 -94 -74 -15 -89 -36 -93 -126 -5 -80 13 -200 31 -223 7 -8 11 -16 9
-18 -1 -2 4 -16 12 -32 l15 -28 -102 -7 c-175 -12 -291 -31 -432 -71 -44 -13
-87 -25 -95 -27 -12 -2 -16 13 -22 72 -3 41 -8 86 -11 100 -12 74 -65 182
-131 268 -22 29 -62 81 -88 115 -55 73 -108 174 -123 237 -2 8 -15 61 -29 117
-14 56 -27 112 -30 125 -8 47 -36 146 -50 179 -29 68 -68 93 -128 81z m992
-2757 c-13 -16 -30 -11 -30 8 0 8 3 8 9 -1 6 -11 10 -10 15 4 3 9 9 14 13 11
3 -4 0 -13 -7 -22z"/>
</g>
</svg>
